<?xml version="1.0" encoding="utf-8"?>
<svg version="1.1" x="0px" y="0px" viewBox="0.855 -0.086 282.957 168.524" style="enable-background:new 0 0 285.1 169.1;" xmlns="http://www.w3.org/2000/svg">
  <desc>Original source: https://thenounproject.com/search/?q=acacia&amp;i=1586856

Original artist: Kelsey Armstrong, for the Noun Project</desc>
  <title>Acacia Tree</title>
  <style type="text/css">
	.st0{fill:#2E8ECD;}
</style>
  <g>
    <path class="st0" d="M206.4,260.8c1.3,0.6,1.5,0.6,1.3,0.5C207.2,261.1,206.8,261,206.4,260.8    C206.4,260.8,206.4,260.8,206.4,260.8z" style="fill: rgb(255, 110, 30);"/>
    <g>
      <path d="M 162.4 93.3 C 165.8 90.7 169.9 88.8 173.8 87.3 C 178.6 85.5 183.6 84.5 188.3 82.5 C 188.4 82.4 188.5 82.4 188.7 82.3 C 188.7 82.3 188.8 82.3 188.8 82.3 C 189.1 82.4 189.4 82.4 189.6 82.1 C 189.8 82.1 190 82 190.2 82 C 191.7 82 195.8 82.1 196.5 82.1 C 199.2 82.1 201.9 81.6 204.6 81.4 C 209.5 81 214.4 79.9 219.3 79.3 C 222.1 79 224.7 78.4 227.5 77.8 C 229.5 77.4 231.1 77 232.2 75.3 C 233.7 73 236.4 69.6 237.1 66.4 C 237.7 65.5 238.2 64.5 238.7 63.5 C 237.4 63.3 236.1 63.2 234.8 63.2 C 231.8 66.6 231.8 69.8 226.4 71.3 C 222 72.5 217.6 73.6 213.1 74.3 C 204.1 75.8 194.9 74.6 186.1 76.7 C 186.1 76.7 186.1 76.7 186.1 76.7 C 186.4 76.5 186.7 76.2 187 76 C 187.1 75.9 187.1 75.9 187.2 75.8 C 188.2 75 189.1 74.3 190.3 73.8 C 190.4 73.8 190.5 73.7 190.5 73.6 C 190.8 73.5 191.1 73.3 191.4 73.2 C 192.4 72.8 193.4 72.4 194.4 72 C 194.8 71.9 195.1 71.9 195.5 71.7 C 196.3 71.4 197.1 71 197.9 70.6 C 199.2 70.1 200.4 69.6 201.6 69 C 202.9 68.5 204.1 68 205.4 67.4 C 206 67.2 206.5 66.9 207.1 66.6 C 207.1 66.6 207.1 66.6 207.1 66.6 C 207.9 66.2 209.1 65.7 210 65.1 C 210.6 64.8 211.2 64.4 211.6 63.6 C 211.9 63 212.2 62.4 212.5 61.7 C 211.7 60.7 210.7 59.9 209.6 59.1 C 207.6 62.3 204.5 64 201.4 66 C 202 64.9 202.5 63.6 202.9 62.5 C 203.2 61.7 203.6 60.9 203.8 60.2 C 204.1 59.6 204.3 58.9 204.5 58.3 C 203 58.8 201.4 59 199.9 59.1 C 198.5 61.8 196.7 64.2 194.3 65.7 C 194.2 65.9 194.1 66 193.9 66.2 C 192.5 67.8 190.5 68.7 188.5 69.7 C 186.3 70.7 184.1 71.1 181.7 71.4 C 180.3 71.5 178.7 71.6 177.5 72.4 C 176.4 73.2 176 74.8 175.5 75.9 C 174.8 77.3 173.9 78.7 173.2 80.2 C 170.5 80.8 167.7 81.2 165 82.1 C 162.3 83 161.3 84.7 159.6 87 C 157.6 89.7 156.6 91.2 153.4 92.2 C 151.6 92.7 149.8 93.2 148.1 93.7 C 146.3 92.1 144.5 90.4 142.7 88.8 C 141.6 87.9 140.6 86.7 139.5 85.8 C 140 83.9 140.4 82 140.9 80.1 C 144 79.7 147.2 79.7 150.4 79.1 C 152.6 78.6 154.4 77.7 156.5 77 C 157.9 76.5 159.9 76.4 161 75.5 C 161.9 74.7 161.9 73.6 162.6 72.8 C 164.3 70.9 166.8 71.1 168.9 70 C 172.4 68.2 175.9 66.5 179.5 64.8 C 181.6 63.2 183.4 61.5 184.5 59.4 C 184.5 59.4 184.5 59.4 184.5 59.4 C 182.4 59.2 180 59.7 177.8 60.4 C 176.3 61.9 174.5 63.4 172.6 64.1 C 170.8 64.8 168.9 65.2 167 65.2 C 165.3 65.3 163.1 64.8 161.4 65.2 C 160.6 65.4 160.2 65.9 160 66.6 C 159.9 66.6 159.8 66.7 159.8 66.8 C 159.5 67.5 159.1 68.5 158.9 69.4 C 158.6 69.8 158.2 70.1 157.7 70.5 C 156.9 71.1 156 71.4 155 71.8 C 151.4 73.5 146.9 73.2 142.9 73.6 C 143.1 73.1 143.3 72.6 143.5 72.1 C 143.9 71 144.6 69.3 144.8 67.6 C 145.4 65.8 145.7 63.8 145.9 61.8 C 145.9 61.6 145.9 61.4 145.9 61.2 C 144.2 60.6 142.3 60.2 140.6 59.5 C 140.6 60.6 140.6 61.8 140.6 62.9 C 140.5 63.5 140.4 64 140.2 64.6 C 138.6 67.4 137.9 71.5 136.8 74.5 C 135.7 77.1 134.4 79.6 133.1 81.9 C 133 82 132.9 82.2 132.8 82.3 C 130.6 81.1 128.3 80 126.1 79.8 C 126 79.8 125.9 79.8 125.8 79.8 C 125.7 79.4 125.5 79 125.4 78.6 C 124.9 76.9 125.9 76.7 126.1 76.5 C 127.2 75.5 129.4 75.2 129.4 75.2 C 131.4 73.8 132.7 73.6 132.6 71 C 132.5 68.5 132.2 66 132.1 63.4 C 132.1 63.1 132.1 62.8 132.1 62.4 C 131.8 60.6 131.7 58.7 131.5 56.9 C 131.4 56.9 131.3 56.9 131.2 56.9 C 129.8 56.6 128.5 56.2 127.1 55.7 C 127.5 58.4 127.9 61.1 127.9 63.8 C 127.9 64.6 127.8 65.3 127.6 65.9 C 127.6 66.8 127.4 67.6 127.2 68.2 C 126.5 70 124.4 70.5 122.5 70.7 C 121.1 68.9 118.6 68.6 116.2 68 C 114.1 67.5 111.9 67.1 109.8 66.5 C 107.9 65.9 107 64.4 106.2 62.7 C 104.9 60.6 104.1 58.3 103.3 56 C 102 56.1 100.6 56.2 99.3 56.3 C 99.4 56.5 99.5 56.8 99.6 57 C 99.7 58.6 100.7 60 101.5 61.4 C 101.6 61.6 101.6 61.8 101.7 62.1 C 102.2 63.5 103.1 64.7 103.8 66.1 C 103.9 66.3 104 66.5 104.1 66.8 C 104.1 66.9 104.1 67 104.1 67 C 104.1 67.2 104.2 67.4 104.4 67.5 C 105.3 69.4 106.1 70.7 108.5 71.6 C 111.4 72.7 115.7 72.2 118.1 74 C 119.3 74.8 119.5 77.2 119.9 78.6 C 120.1 79.4 120.6 80.6 120.8 81.5 C 117.8 80.6 114.9 79.7 111.9 78.7 C 109.5 77.9 107 77.1 104.6 76.3 C 103.9 76.1 103.2 75.8 102.5 75.5 C 100.8 75 99.2 74.4 97.6 73.3 C 95.7 71.9 93.9 70.1 92.5 68.1 C 91.9 67.8 91.3 67.5 90.7 67.2 C 90.4 67.1 90.2 67.1 90 67 C 89 66.8 88 66.6 87 66.3 C 86 66.1 85 65.9 84 65.5 C 83 65 79.3 60.9 78.6 60.3 C 78.4 60.2 78.3 60.1 78.1 60 C 78 59.9 78 59.8 77.9 59.7 C 76.3 60.2 74.7 60.7 73 60.9 C 75.4 63.7 80.8 69.7 83.7 71.7 C 84.7 72 85.6 72.2 86.6 72.3 C 87.1 72.3 87.4 72.5 87.7 72.7 C 88.8 73 89.8 73.5 90.8 74.6 C 91.8 75.7 92.7 76.8 93.6 77.9 C 95.3 79.2 97.1 80.3 99 81.3 C 106.7 83.1 114 87.3 121.8 88.7 C 124.6 91.5 128 92.1 131.1 94.6 C 131.7 95.1 132.2 95.5 132.7 95.8 C 133 99.5 133.4 103.1 133.7 106.8 C 134 110.9 134.4 114.9 135.1 118.9 C 135.2 119.5 135.3 120.1 135.4 120.7 C 135.4 121.2 135.4 121.8 135.5 122.3 C 135.4 124.4 135.4 126.4 135.2 128.5 C 135 131.7 135.4 135.1 135.8 138.3 C 135.9 139.6 136.1 141 136.4 142.3 C 136.4 142.4 136.5 142.5 136.5 142.5 C 136.2 146.6 135.9 150.7 135.5 154.7 C 135.3 155.8 135 157 135 158.1 C 134.8 161.1 135.1 164.1 135 167 C 135 167.7 136 167.8 136.2 167.2 C 138.4 160.7 150.495 167.283 153.695 161.283 C 155.595 157.783 152.355 149.446 154.155 145.846 C 155.255 143.646 153.562 135.668 154.762 133.568 C 155.562 132.168 155.3 127.8 155.6 126.1 C 155.6 126 155.6 125.8 155.5 125.7 C 155.5 125.6 155.6 125.6 155.6 125.5 C 156.3 120.8 156.6 116 157 111.3 C 157.4 107 157.9 102.3 157.5 97.9 C 158.8 96.9 160.4 94.8 162.4 93.3 Z" style="fill: rgb(255, 110, 30);"/>
      <path d="M11,46.4c-0.8,1.4-1.8,2.7-3.1,3.7c-1.7,1.4-6.7,2.7-6.2,5.6C5,57,8.5,57.5,11.9,58.5c1.7-0.1,3.4-0.1,5.1-0.2     c0.4,0,1.6-0.2,2.2-0.1c0,0,0,0.1,0,0.1c-0.3,0-0.8,0.1-1.1,0.8c-0.6,1.2-0.4,2.2,0.6,3c2.1,1.5,5.9,0.5,8.2,0     c5.3-1.1,10.6-2.8,15.9-3.5c0,0.5,0,1,0.2,1.6c0.2,0.6,0.6,0.8,1.1,0.9c4.5,0.6,8.5-0.7,12.7-2.1c3.4-1.2,6.6-2.2,10.2-2.7     c0.8-0.1,1.8-0.4,2.2-0.4c0,0,0,0.1-0.1,0.1c0.7-0.1,1.4-0.2,2.1-0.3c1.2-0.2,2.3-0.2,3.5-0.3c1-0.3,1.9-0.6,2.9-0.9     c0.6,0.5,1.4,0.7,2.4,0.8c0.4,0,1.8-0.3,2.5-0.5c-0.9,0.2,2.7-0.5,2.7-0.5c2.5-0.3,5-0.4,7.4-1c1.9-0.5,3.7-0.9,5.4-1.2     c0.5,0,0.9-0.1,1.4-0.2c1.3-0.1,2.6-0.1,4,0.1c1.1,0.2,2.5,0.6,4.9,0.8c7.1,0.5,13.8-1.1,20.8-1c1.9,0.6,3.7,1.4,5.6,1.9     c1.3,0,2.7-0.1,3.7-0.4c2.6,0.7,5.1,1.4,7.6,1.9c1.4,0.3,2.4,0.6,3.7,1.1c0.1,0.1,1.6,0.8,1.9,0.9c0.4,0.1,3.4,1,2.3,0.7     c-1.1-0.3,1.7,0.5,2.1,0.6c5.5,1.4,11.6,1.5,16.9-0.4c0.2-0.1,0.5-0.2,0.7-0.3c0.9-0.4,1.8-0.7,2.8-1.1c2.6-1,4.7-1.7,8.5-2.2     c2.2-0.3,4.3-0.2,6.4-0.2c0.5,0.2,1.1,0.4,1.6,0.6c0,0,0,0,0.1,0c2-0.2,5.3-1.3,8.5-2.1c2.2-0.2,4.5-0.4,6.7-0.7     c0.4,0.1,0.8,0.2,1.2,0.3c0,0,0.1,0,0.1,0c0.1,0,0.2,0.1,0.3,0.2c1.6,0.7,2.6,2,3.7,3.4c0.9,0.6,1.8,1.1,2.8,1.4     c1.7,0.5,3.5,0.7,5.2,1c2.3-0.1,4.6-0.3,6.5-0.3c1,0,2,0,3,0c1.8,0,3.6,0.1,5.4,0.3c0.2,0,0.4,0,0.6,0.1c0,0,0.1,0,0.1,0     c1.3,0.2,1.8,0.7,3.2,0.9c1.8,0.2,2.4,0,4-0.5c4.7-1.4,6.8-1.5,11.7,0c3.9,1.2,7.7,2.1,11.7,2.4c1,0.1,1.9,0.1,2.9,0.1     c2.5-0.6,5-1.1,7.6-1.6c0.7-0.1,1.5-0.3,2.3-0.4c0.7-0.2,1.4-0.5,2-0.8c0.3-1.5-1.6-3.2-3.4-4.6c-3-0.9-6-1.8-8.2-3.8     c-2.7-0.8-5.4-1.8-7.9-3c-0.7-0.2-1.4-0.5-2-0.8c-0.9-0.2-1.6-0.6-2.5-1.7c0,0,0,0,0-0.1c-0.2-0.1-0.4-0.2-0.5-0.3     c-0.2-0.1-0.3-0.2-0.4-0.4c-3-2.3-5.7-5-8.7-7.4c-1.7-0.7-3.4-1.3-4.9-1.8c-2.6-0.9-5.6-1.2-8-2.6c-2.2-1.3-2.4-3.3-3.7-4.9     c-1-1.3-0.5-0.8-2.1-2c-0.4-0.3-1.6-0.4-1.6-0.4c-1.1-0.5-1.9-1.1-2.5-1.7c-0.4-0.3-0.7-0.6-1.1-1c-0.5-0.1-1-0.3-1.5-0.7     c-2.9-2.2-7.4-2.4-10.8-3.5c-2.1-0.6-4.1-1.3-6.1-2c-0.6-0.1-1.2-0.2-1.8-0.2c-6-0.7-11.8-1.9-17.7-3.1     c-4.2-0.9-10.2-1.3-13.3-4.3c-0.3-0.8-0.8-1.5-1.5-2c-0.8-1.4-0.9-2.1-3.5-2.7c-5.8-1.3-12.3-1.3-18.2-2.1     C139.4-0.2,129,1.7,118,3.8c-6.5,1.2-13.1,2.4-19.5,4c-5.6,1.4-11.1,3.7-16.6,5.3c-3.8,1.1-9.1,3.2-12,6c-2,1.9-2,2.6-1.6,4.1     c-1.1,0.2-2.3,0.4-3.4,0.7c-2.5,0.2-5.1,0.3-7.4,0.6c-4.4,0.7-8.8,2.2-12.9,3.9c-5,2.2-10.1,4.2-15.2,6c-3.1,1.1-6.1,2.6-8.3,5.1     c-0.5,0.5-0.4,1.1,0,1.7c0,0,0,0,0,0.1c-2,1.1-4.3,1.9-6.2,3C13.6,45,12.3,45.7,11,46.4z" style="fill: rgb(255, 110, 30);"/>
    </g>
  </g>
</svg>